<svg viewBox="0 0 200 200" xmlns="http://www.w3.org/2000/svg">
  <defs>
    <!-- Gradient for the main icon -->
    <linearGradient id="mainGradient" x1="0%" y1="0%" x2="100%" y2="100%">
      <stop offset="0%" style="stop-color:#6366f1;stop-opacity:1" />
      <stop offset="100%" style="stop-color:#8b5cf6;stop-opacity:1" />
    </linearGradient>
    
    <!-- Gradient for accent elements -->
    <linearGradient id="accentGradient" x1="0%" y1="0%" x2="100%" y2="100%">
      <stop offset="0%" style="stop-color:#06b6d4;stop-opacity:1" />
      <stop offset="100%" style="stop-color:#0891b2;stop-opacity:1" />
    </linearGradient>
    
    <!-- Shadow filter -->
    <filter id="shadow" x="-50%" y="-50%" width="200%" height="200%">
      <feDropShadow dx="0" dy="4" stdDeviation="8" flood-color="#000000" flood-opacity="0.1"/>
    </filter>
    
    <!-- Glow effect -->
    <filter id="glow" x="-50%" y="-50%" width="200%" height="200%">
      <feGaussianBlur stdDeviation="2" result="coloredBlur"/>
      <feMerge> 
        <feMergeNode in="coloredBlur"/>
        <feMergeNode in="SourceGraphic"/>
      </feMerge>
    </filter>
  </defs>
  
  <!-- Background circle with subtle gradient -->
  <circle cx="100" cy="100" r="90" fill="url(#mainGradient)" filter="url(#shadow)" opacity="0.95"/>
  
  <!-- Main checklist icon -->
  <g transform="translate(100, 100)" filter="url(#glow)">
    <!-- Clipboard background -->
    <rect x="-25" y="-35" width="50" height="65" rx="6" ry="6" fill="white" opacity="0.95"/>
    <rect x="-23" y="-33" width="46" height="61" rx="4" ry="4" fill="white"/>
    
    <!-- Clipboard clip -->
    <rect x="-8" y="-40" width="16" height="8" rx="3" ry="3" fill="url(#accentGradient)"/>
    <rect x="-6" y="-38" width="12" height="4" rx="2" ry="2" fill="white" opacity="0.3"/>
    
    <!-- Checkmark items -->
    <!-- First checkmark -->
    <circle cx="-15" cy="-20" r="4" fill="url(#accentGradient)"/>
    <path d="M-17,-20 L-15,-18 L-12,-22" stroke="white" stroke-width="2" fill="none" stroke-linecap="round" stroke-linejoin="round"/>
    <rect x="-8" y="-22" width="20" height="2" rx="1" fill="#e5e7eb"/>
    
    <!-- Second checkmark -->
    <circle cx="-15" cy="-5" r="4" fill="url(#accentGradient)"/>
    <path d="M-17,-5 L-15,-3 L-12,-7" stroke="white" stroke-width="2" fill="none" stroke-linecap="round" stroke-linejoin="round"/>
    <rect x="-8" y="-7" width="15" height="2" rx="1" fill="#e5e7eb"/>
    
    <!-- Third item (in progress) -->
    <circle cx="-15" cy="10" r="4" fill="white" stroke="url(#accentGradient)" stroke-width="2"/>
    <rect x="-8" y="8" width="18" height="2" rx="1" fill="#e5e7eb"/>
    
    <!-- Wisdom/brain icon overlay -->
    <g transform="translate(15, -15) scale(0.8)">
      <path d="M0,-8 C8,-8 12,-4 12,2 C12,6 10,8 8,8 C6,10 2,10 0,8 C-2,10 -6,10 -8,8 C-10,8 -12,6 -12,2 C-12,-4 -8,-8 0,-8 Z" 
            fill="url(#accentGradient)" opacity="0.8"/>
      <circle cx="-3" cy="-2" r="1.5" fill="white" opacity="0.7"/>
      <circle cx="3" cy="-2" r="1.5" fill="white" opacity="0.7"/>
      <path d="M-2,2 Q0,4 2,2" stroke="white" stroke-width="1.5" fill="none" stroke-linecap="round" opacity="0.7"/>
    </g>
  </g>
  
  <!-- Floating accent elements -->
  <circle cx="60" cy="70" r="3" fill="url(#accentGradient)" opacity="0.6">
    <animate attributeName="cy" values="70;65;70" dur="3s" repeatCount="indefinite"/>
  </circle>
  <circle cx="140" cy="130" r="2.5" fill="url(#accentGradient)" opacity="0.4">
    <animate attributeName="cy" values="130;135;130" dur="4s" repeatCount="indefinite"/>
  </circle>
  <circle cx="45" cy="140" r="2" fill="white" opacity="0.5">
    <animate attributeName="cy" values="140;135;140" dur="5s" repeatCount="indefinite"/>
  </circle>
  
  <!-- Subtle sparkle effects -->
  <g opacity="0.7">
    <path d="M155,60 L157,64 L161,62 L157,66 L155,70 L153,66 L149,62 L153,64 Z" fill="white">
      <animateTransform attributeName="transform" type="rotate" values="0 155 65;360 155 65" dur="8s" repeatCount="indefinite"/>
    </path>
    <path d="M70,155 L71,157 L73,156 L71,158 L70,160 L69,158 L67,156 L69,157 Z" fill="white" opacity="0.6">
      <animateTransform attributeName="transform" type="rotate" values="0 70 157;-360 70 157" dur="12s" repeatCount="indefinite"/>
    </path>
  </g>
</svg>